<?xml version="1.0" encoding="utf-8"?>
<!-- Generator: Adobe Illustrator 23.0.3, SVG Export Plug-In . SVG Version: 6.00 Build 0)  -->
<svg version="1.1" id="Layer_1" xmlns="http://www.w3.org/2000/svg" xmlns:xlink="http://www.w3.org/1999/xlink" x="0px" y="0px"
	 viewBox="0 0 100 100" style="enable-background:new 0 0 100 100;" xml:space="preserve">
<style type="text/css">
	.st0{fill:#FFFFFF;}
</style>
<g>
	<path class="st0" d="M50,0C22.43,0,0,22.43,0,50s22.43,50,50,50s50-22.43,50-50S77.57,0,50,0z M50,98C23.53,98,2,76.47,2,50
		C2,23.53,23.53,2,50,2s48,21.53,48,48C98,76.47,76.47,98,50,98z"/>
	<path class="st0" d="M32,71h15V57H32V71z M34,59h11v10H34V59z"/>
	<path class="st0" d="M51,43h17V29H51V43z M53,31h13v10H53V31z"/>
	<path class="st0" d="M51,71h17V46H51V71z M53,48h13v21H53V48z"/>
	<path class="st0" d="M32,54h15V29H32V54z M34,31h11v21H34V31z"/>
</g>
</svg>
