<?xml version="1.0" encoding="utf-8"?>
<!-- Generator: Adobe Illustrator 23.0.3, SVG Export Plug-In . SVG Version: 6.00 Build 0)  -->
<svg version="1.1" id="Layer_1" xmlns="http://www.w3.org/2000/svg" xmlns:xlink="http://www.w3.org/1999/xlink" x="0px" y="0px"
	 viewBox="0 0 100 100" style="enable-background:new 0 0 100 100;" xml:space="preserve">
<style type="text/css">
	.st0{fill:#FFFFFF;}
</style>
<g>
	<path class="st0" d="M50,0C22.43,0,0,22.43,0,50s22.43,50,50,50s50-22.43,50-50S77.57,0,50,0z M50,98C23.53,98,2,76.47,2,50
		C2,23.53,23.53,2,50,2s48,21.53,48,48C98,76.47,76.47,98,50,98z"/>
	<path class="st0" d="M51.32,36.43l0.09-0.19c-5.51-2.48-11.81-1.22-16.05,3.2c-0.84,0.87-1.59,1.89-2.23,3.02l-0.37,0.65l5.81,6.07
		c-1.69,2.66-2.48,4.54-2.51,4.61l-0.25,0.61l10.78,10.78l0.62-0.25c0.06-0.03,1.94-0.82,4.58-2.52l6.1,5.83l0.65-0.36
		c1.13-0.64,2.14-1.38,3.01-2.22c4.45-4.26,5.69-10.57,3.16-16.07l-0.23,0.11c2.89-4.64,5.1-10.46,5.51-17.63l0.06-1.11L68.95,31
		C61.77,31.38,55.96,33.56,51.32,36.43z M35.25,42.81c0.47-0.73,0.99-1.4,1.55-1.99c3.37-3.51,8.24-4.7,12.69-3.19
		c-4.41,3.11-7.61,6.78-9.77,9.84L35.25,42.81z M47.06,62.8l-8.87-8.87c1.14-2.42,6.04-11.64,16.31-17.02l9.54,9.54
		C58.65,56.7,49.48,61.64,47.06,62.8z M60.18,64.21c-0.59,0.56-1.25,1.08-1.98,1.54l-4.7-4.5c3.05-2.17,6.71-5.38,9.82-9.79
		C64.9,55.92,63.73,60.82,60.18,64.21z M64.97,44.56l-8.57-8.57c3.32-1.48,7.14-2.56,11.52-2.92
		C67.55,37.43,66.46,41.24,64.97,44.56z"/>
	<path class="st0" d="M52.5,44c-2.48,0-4.5,2.02-4.5,4.5s2.02,4.5,4.5,4.5s4.5-2.02,4.5-4.5S54.98,44,52.5,44z M52.5,51
		c-1.38,0-2.5-1.12-2.5-2.5s1.12-2.5,2.5-2.5s2.5,1.12,2.5,2.5S53.88,51,52.5,51z"/>
	<path class="st0" d="M35.5,60c-3.03,0-5.5,2.47-5.5,5.5V71h5.5c3.03,0,5.5-2.47,5.5-5.5S38.53,60,35.5,60z M35.5,69H32v-3.5
		c0-1.93,1.57-3.5,3.5-3.5s3.5,1.57,3.5,3.5S37.43,69,35.5,69z"/>
</g>
</svg>
