<svg id="Layer_1" data-name="Layer 1" xmlns="http://www.w3.org/2000/svg" viewBox="0 0 100 100"><defs><style>.cls-1{fill:#fff;}</style></defs><title>Icon_1</title><path class="cls-1" d="M50,0a50,50,0,1,0,50,50A50.057,50.057,0,0,0,50,0Zm0,98A48,48,0,1,1,98,50,48.053,48.053,0,0,1,50,98Z"/><path class="cls-1" d="M35.5,39.9a5.5,5.5,0,1,0-2,0V45h2ZM31,34.5A3.5,3.5,0,1,1,34.5,38,3.5,3.5,0,0,1,31,34.5Z"/><path class="cls-1" d="M39.9,49.5a5.5,5.5,0,1,0,0,2H44v-2ZM34.5,54A3.5,3.5,0,1,1,38,50.5,3.5,3.5,0,0,1,34.5,54Z"/><path class="cls-1" d="M49.5,40A5.5,5.5,0,1,0,44,34.5,5.506,5.506,0,0,0,49.5,40Zm0-9A3.5,3.5,0,1,1,46,34.5,3.5,3.5,0,0,1,49.5,31Z"/><path class="cls-1" d="M63.5,29A5.5,5.5,0,1,0,69,34.5,5.506,5.506,0,0,0,63.5,29Zm0,9A3.5,3.5,0,1,1,67,34.5,3.5,3.5,0,0,1,63.5,38Z"/><path class="cls-1" d="M63.5,45A5.5,5.5,0,1,0,69,50.5,5.506,5.506,0,0,0,63.5,45Zm0,9A3.5,3.5,0,1,1,67,50.5,3.5,3.5,0,0,1,63.5,54Z"/><path class="cls-1" d="M34.5,60A5.5,5.5,0,1,0,40,65.5,5.507,5.507,0,0,0,34.5,60Zm0,9A3.5,3.5,0,1,1,38,65.5,3.5,3.5,0,0,1,34.5,69Z"/><path class="cls-1" d="M63.5,60a5.466,5.466,0,0,0-3.092.955L53.962,53.7a5.493,5.493,0,1,0-1.441,1.388l6.466,7.274A5.464,5.464,0,0,0,58.1,64.5H54.9a5.5,5.5,0,1,0,0,2H58.1A5.5,5.5,0,1,0,63.5,60Zm-14,9A3.5,3.5,0,1,1,53,65.5,3.5,3.5,0,0,1,49.5,69ZM46,50.5A3.5,3.5,0,1,1,49.5,54,3.5,3.5,0,0,1,46,50.5ZM63.5,69A3.5,3.5,0,1,1,67,65.5,3.5,3.5,0,0,1,63.5,69Z"/></svg>