<?xml version="1.0" encoding="utf-8"?>
<!-- Generator: Adobe Illustrator 23.0.3, SVG Export Plug-In . SVG Version: 6.00 Build 0)  -->
<svg version="1.1" id="Layer_1" xmlns="http://www.w3.org/2000/svg" xmlns:xlink="http://www.w3.org/1999/xlink" x="0px" y="0px"
	 viewBox="0 0 133.24 48.6" style="enable-background:new 0 0 133.24 48.6;" xml:space="preserve">
<style type="text/css">
	.st0{fill-rule:evenodd;clip-rule:evenodd;fill:#FFFFFF;}
</style>
<g>
	<path class="st0" d="M22.57,30.02v-9.6h-6.65v5.74c-0.94,0.39-1.85,0.55-2.79,0.55c-3.28,0-5.42-2.27-5.42-5.67
		c0-3.5,2.14-5.67,5.51-5.67c2.01,0,3.66,0.84,5.09,2.5l4.9-4.31c-2.3-2.82-5.9-4.38-10.38-4.38C5.35,9.17,0,14.07,0,21.04
		c0,6.97,5.35,11.87,12.68,11.87C16.02,32.91,19.81,31.91,22.57,30.02z"/>
	<path class="st0" d="M33.08,14.98v-1.91H26.1V30.8h7.33v-7.88c0-2.82,1.56-3.83,3.76-3.83c0.52,0,0.97,0.03,1.62,0.13v-6.49
		C36.35,12.74,34.37,13.49,33.08,14.98z"/>
	<path class="st0" d="M49.48,12.74c-2.76,0-5.9,0.71-7.98,2.01l2.33,4.83c1.17-0.88,2.95-1.39,4.54-1.39c2.08,0,3.11,0.71,3.34,2.08
		h-2.95c-5.51,0-8.11,1.91-8.11,5.35c0,3.05,2.24,5.51,6.58,5.51c2.5,0,4.18-0.88,5.03-2.66v2.33h6.81v-9.53
		C59.08,15.37,55.58,12.74,49.48,12.74z M51.75,25.03c-0.39,1.17-1.3,1.69-2.3,1.69c-1.1,0-1.75-0.62-1.75-1.43
		c0-0.97,0.68-1.49,2.24-1.49h1.82V25.03z"/>
	<rect x="83.01" y="8.1" class="st0" width="7.65" height="22.7"/>
	<polygon class="st0" points="70.89,22.57 67.32,13.07 59.8,13.07 66.93,30.8 74.52,30.8 81.65,13.07 74.71,13.07 	"/>
	<polygon class="st0" points="114.4,8.1 93.45,8.1 93.45,14.04 100.1,14.04 100.1,30.8 107.75,30.8 107.75,14.04 114.4,14.04 	"/>
	<path class="st0" d="M133.24,21.92c0-6-4.51-9.18-9.76-9.18c-5.74,0-10.05,3.79-10.05,9.18c0,5.29,4.22,9.21,10.73,9.21
		c3.53,0,6.03-0.97,7.75-2.85l-3.83-3.86c-1.17,0.88-2.08,1.3-3.7,1.3c-1.82,0-3.05-0.71-3.57-2.08h12.32
		C133.18,23.12,133.24,22.44,133.24,21.92z M120.69,20.1c0.29-1.49,1.33-2.37,2.85-2.37c1.49,0,2.56,0.88,2.85,2.37H120.69z"/>
	<path class="st0" d="M18.02,36c-3.48,0-6.3,2.82-6.3,6.3c0,3.48,2.82,6.3,6.3,6.3c3.48,0,6.3-2.82,6.3-6.3
		C24.32,38.82,21.5,36,18.02,36z M18.02,43.7c-0.77,0-1.4-0.63-1.4-1.4c0-0.77,0.63-1.4,1.4-1.4c0.77,0,1.4,0.63,1.4,1.4
		C19.42,43.07,18.79,43.7,18.02,43.7z"/>
	<path class="st0" d="M20.82,0c-1.93,0-3.5,1.57-3.5,3.5c0,1.93,1.57,3.5,3.5,3.5c1.93,0,3.5-1.57,3.5-3.5
		C24.32,1.57,22.75,0,20.82,0z"/>
</g>
</svg>
